<svg width="1108" height="1108" viewBox="0 0 1108 1108" fill="none" xmlns="http://www.w3.org/2000/svg">
<path d="M510.142 690.192L424.733 775.6C406.728 793.605 378.105 793.605 359.638 776.062C354.56 770.983 349.482 766.367 344.403 761.288C296.852 713.275 253.917 662.953 215.598 610.323C177.742 557.693 147.272 505.063 125.112 452.895C103.413 400.265 92.3335 349.943 92.3335 301.93C92.3335 270.537 97.8735 240.528 108.953 212.828C120.033 184.667 137.577 158.813 162.045 135.73C191.592 106.645 223.908 92.3333 258.072 92.3333C270.998 92.3333 283.925 95.1033 295.467 100.643C307.47 106.183 318.088 114.493 326.398 126.497L433.505 277.462C441.815 289.003 447.817 299.622 451.972 309.778C456.127 319.473 458.435 329.168 458.435 337.94C458.435 349.02 455.203 360.1 448.74 370.718C442.738 381.337 433.967 392.417 422.887 403.497L387.8 439.968C382.722 445.047 380.413 451.048 380.413 458.435C380.413 462.128 380.875 465.36 381.799 469.053C383.184 472.747 384.568 475.517 385.492 478.287C393.802 493.522 408.113 513.373 428.427 537.38C449.202 561.387 471.362 585.855 495.368 610.323C499.985 614.94 505.063 619.557 509.68 624.173C528.147 642.178 528.608 671.725 510.142 690.192Z" fill="black"/>
<path d="M1014.29 846.235C1014.29 859.162 1011.98 872.55 1007.36 885.477C1005.98 889.17 1004.59 892.863 1002.74 896.557C994.896 913.177 984.74 928.873 971.351 943.647C948.73 968.577 923.8 986.582 895.638 998.123C895.176 998.123 894.715 998.585 894.253 998.585C867.015 1009.66 837.468 1015.67 805.613 1015.67C758.523 1015.67 708.201 1004.59 655.11 981.965C602.018 959.343 548.926 928.873 496.296 890.555C478.291 877.167 460.286 863.778 443.205 849.467L594.17 698.502C607.096 708.197 618.638 715.583 628.333 720.662C630.641 721.585 633.411 722.97 636.643 724.355C640.336 725.74 644.03 726.202 648.185 726.202C656.033 726.202 662.035 723.432 667.113 718.353L702.2 683.728C713.741 672.187 724.821 663.415 735.44 657.875C746.058 651.412 756.676 648.18 768.218 648.18C776.99 648.18 786.223 650.027 796.38 654.182C806.536 658.337 817.155 664.338 828.696 672.187L981.508 780.678C993.511 788.988 1001.82 798.683 1006.9 810.225C1011.52 821.767 1014.29 833.308 1014.29 846.235Z" fill="black"/>
</svg>
