<svg width="24" height="24" viewBox="0 0 24 24" fill="none" xmlns="http://www.w3.org/2000/svg">
<path d="M1.99999 12.22C1.88999 6.6 6.32999 2.05 11.95 2.05C17.57 2.05 22 6.6 22 12.11V18.27C22 20.22 20.38 21.84 18.43 21.84C16.48 21.84 14.86 20.22 14.86 18.27V15.46C14.86 14.49 15.62 13.62 16.7 13.62C17.67 13.62 18.54 14.38 18.54 15.46V18.49" stroke="#292D32" stroke-width="1.5" stroke-linecap="round" stroke-linejoin="round"/>
<path d="M5.46 18.49V15.57C5.46 14.6 6.22 13.73 7.3 13.73C8.27 13.73 9.14 14.49 9.14 15.57V18.38C9.14 20.33 7.52 21.95 5.57 21.95C3.62 21.95 2 20.32 2 18.38V16" stroke="#292D32" stroke-width="1.5" stroke-linecap="round" stroke-linejoin="round"/>
</svg>
