<svg width="1007" height="1007" viewBox="0 0 1007 1007" fill="none" xmlns="http://www.w3.org/2000/svg">
<path fill-rule="evenodd" clip-rule="evenodd" d="M503.541 6C778.333 6 1001.08 234.368 1001.08 516.126C1001.08 741.462 858.686 932.619 661.113 1000.14C635.887 1005.16 626.932 989.23 626.932 975.647C626.932 958.83 627.529 903.903 627.529 835.641C627.529 788.076 611.608 757.032 593.746 741.21C704.548 728.572 820.973 685.431 820.973 489.499C820.973 433.775 801.668 388.302 769.726 352.578C774.9 339.692 791.966 287.805 764.85 217.552C764.85 217.552 723.156 203.883 628.175 269.857C588.422 258.563 545.832 252.88 503.541 252.681C461.25 252.88 418.711 258.563 379.007 269.857C283.927 203.883 242.133 217.552 242.133 217.552C215.117 287.805 232.182 339.692 237.307 352.578C205.514 388.302 186.06 433.775 186.06 489.499C186.06 684.934 302.236 728.736 412.74 741.623C398.511 754.36 385.624 776.829 381.146 809.816C352.786 822.852 280.742 845.412 236.362 767.447C236.362 767.447 210.042 718.433 160.089 714.851C160.089 714.851 111.578 714.206 156.705 745.85C156.705 745.85 189.294 761.522 211.932 820.481C211.932 820.481 241.138 911.529 379.554 880.682C379.803 923.321 380.251 963.507 380.251 975.647C380.251 989.13 371.096 1004.91 346.268 1000.18C148.545 932.767 6 741.512 6 516.126C6 234.368 228.799 6 503.541 6Z" fill="black"/>
</svg>
