<svg width="1000" height="1000" viewBox="0 0 1000 1000" fill="none" xmlns="http://www.w3.org/2000/svg">
<path d="M232.727 888V488.345L115.299 374.952L10 312.027V817.473C10 856.498 39.9568 888 76.8182 888H232.727Z" fill="#4285F4"/>
<path d="M767.272 888H923.182C960.154 888 990 856.38 990 817.473V312.027L870.732 384.105L767.272 488.345V888Z" fill="#34A853"/>
<path d="M232.728 488.346L216.749 332.187L232.728 182.728L500.001 394.309L767.273 182.728L785.148 324.117L767.273 488.346L500.001 699.928L232.728 488.346Z" fill="#EA4335"/>
<path d="M767.272 182.727V488.346L990 312.027V217.991C990 130.772 895.675 81.0505 829.636 133.358L767.272 182.727Z" fill="#FBBC04"/>
<path d="M10 312.027L112.436 393.119L232.727 488.346V182.727L170.364 133.358C104.214 81.0505 10 130.772 10 217.991V312.027Z" fill="#C5221F"/>
</svg>
