<svg width="24" height="24" viewBox="0 0 24 24" fill="none" xmlns="http://www.w3.org/2000/svg">
<path d="M3.36002 19.2401C3.60002 20.6601 4.96002 21.8101 6.40002 21.8101H17.6C19.03 21.8101 20.4 20.6501 20.64 19.2401L21.97 11.2801C22.13 10.3001 21.63 8.99008 20.86 8.37008L13.93 2.8301C12.86 1.9701 11.13 1.97009 10.07 2.82009L3.14002 8.37008C2.36002 8.99008 1.86002 10.3001 2.03002 11.2801L2.71003 15.3701" stroke="#292D32" stroke-width="1.5" stroke-linecap="round" stroke-linejoin="round"/>
<path d="M12 10.5C10.62 10.5 9.5 11.62 9.5 13C9.5 14.38 10.62 15.5 12 15.5C13.38 15.5 14.5 14.38 14.5 13" stroke="#292D32" stroke-width="1.5" stroke-linecap="round" stroke-linejoin="round"/>
</svg>
