<svg width="1000" height="1000" viewBox="0 0 1000 1000" fill="none" xmlns="http://www.w3.org/2000/svg">
<path fill-rule="evenodd" clip-rule="evenodd" d="M996 996H797.6V648.848C797.6 553.616 755.589 500.484 680.247 500.484C598.258 500.484 549.6 555.848 549.6 648.848V996H351.2V351.2H549.6V423.711C549.6 423.711 611.848 314.484 752.116 314.484C892.435 314.484 996 400.111 996 577.282V996ZM125.123 248.077C58.2129 248.077 4 193.42 4 126.014C4 58.6573 58.2129 4 125.123 4C191.984 4 246.197 58.6573 246.197 126.014C246.246 193.42 191.984 248.077 125.123 248.077ZM4 996H252V351.2H4V996Z" fill="black"/>
</svg>
