<svg width="1135" height="1135" viewBox="0 0 1135 1135" fill="none" xmlns="http://www.w3.org/2000/svg">
<path d="M94.5835 617.156V709.375C94.5835 945.833 189.167 1040.42 425.625 1040.42H709.375C945.833 1040.42 1040.42 945.833 1040.42 709.375V425.625C1040.42 189.167 945.833 94.5833 709.375 94.5833H425.625C189.167 94.5833 94.5835 189.167 94.5835 425.625" stroke="black" stroke-width="50" stroke-linecap="round" stroke-linejoin="round"/>
<path d="M820.51 427.992L709.848 784.569C683.364 869.221 564.662 870.64 536.76 786.46L503.656 688.567C494.671 661.61 473.389 639.856 446.432 631.344L348.065 598.24C264.359 570.338 265.778 450.691 350.43 425.154L707.01 314.018C777.002 292.737 842.737 358.473 820.51 427.992Z" stroke="black" stroke-width="50" stroke-linecap="round" stroke-linejoin="round"/>
</svg>
