<svg width="24" height="24" viewBox="0 0 24 24" fill="none" xmlns="http://www.w3.org/2000/svg">
<path d="M2 12.83V15C2 20 4 22 9 22H15C20 22 22 20 22 15V9C22 4 20 2 15 2H9C4 2 2 4 2 9" stroke="#292D32" stroke-width="1.5" stroke-linecap="round" stroke-linejoin="round"/>
<path d="M17 11.84H14.32C13.61 11.84 13.13 11.3 13.13 10.65V9.15997C13.13 8.50997 13.61 7.96997 14.32 7.96997H15.81C16.46 7.96997 17 8.50997 17 9.15997V11.84Z" stroke="#292D32" stroke-width="1.5" stroke-linecap="round" stroke-linejoin="round"/>
<path d="M17 11.84C17 14.63 16.48 15.1 14.91 16.03" stroke="#292D32" stroke-width="1.5" stroke-linecap="round" stroke-linejoin="round"/>
<path d="M10.86 11.84H8.17999C7.46999 11.84 6.98999 11.3 6.98999 10.65V9.15997C6.98999 8.50997 7.46999 7.96997 8.17999 7.96997H9.66999C10.32 7.96997 10.86 8.50997 10.86 9.15997V11.84Z" stroke="#292D32" stroke-width="1.5" stroke-linecap="round" stroke-linejoin="round"/>
<path d="M10.86 11.84C10.86 14.63 10.34 15.1 8.77002 16.03" stroke="#292D32" stroke-width="1.5" stroke-linecap="round" stroke-linejoin="round"/>
</svg>
