<svg width="989" height="996" viewBox="0 0 989 996" fill="none" xmlns="http://www.w3.org/2000/svg">
<path d="M718.57 596.503C705.964 590.532 645.585 560.674 634.306 556.03C623.026 551.385 615.064 550.058 606.439 562.665C597.813 575.271 574.591 602.475 567.292 611.1C559.994 619.726 553.359 620.389 540.752 611.1C504.543 596.569 471.102 575.921 441.891 550.058C415.447 525.161 393.06 496.282 375.541 464.467C368.242 452.524 375.541 445.889 380.849 439.254C386.157 432.619 392.792 425.32 399.427 418.022C404.279 411.71 408.293 404.796 411.37 397.453C413.016 394.038 413.87 390.296 413.87 386.506C413.87 382.715 413.016 378.973 411.37 375.558C411.37 369.586 383.503 309.208 372.887 284.658C362.271 260.109 352.982 263.426 345.683 263.426H319.143C306.5 263.919 294.569 269.407 285.968 278.687C272.085 291.935 261.088 307.908 253.667 325.605C246.245 343.302 242.56 362.341 242.841 381.529C246.234 428.636 263.556 473.671 292.603 510.912C345.907 590.096 418.832 654.106 504.26 696.692C533.454 709.298 556.013 716.597 573.927 722.568C599.083 730.172 625.673 731.763 651.557 727.213C668.748 723.725 685.039 716.743 699.42 706.699C713.801 696.655 725.965 683.764 735.158 668.825C742.808 650.376 745.33 630.202 742.456 610.437C739.139 605.792 731.177 602.475 718.57 596.503Z" fill="black"/>
<path d="M842.645 144.66C796.759 98.3399 742.062 61.6776 681.78 36.8354C621.498 11.9933 556.851 -0.525674 491.653 0.0169111C405.285 0.468883 320.547 23.5733 245.903 67.0226C171.258 110.472 109.319 172.745 66.2729 247.623C23.2266 322.501 0.579222 407.362 0.592749 493.732C0.606275 580.101 23.2802 664.955 66.35 739.819L0 995.267L261.419 928.917C333.69 968.243 414.684 988.777 496.961 988.632H491.653C589.713 989.271 685.742 960.69 767.493 906.534C849.244 852.377 913.013 775.1 950.669 684.556C988.324 594.012 998.159 494.305 978.92 398.149C959.681 301.992 912.239 213.745 842.645 144.66ZM491.653 903.704C418.042 903.762 345.798 883.81 282.651 845.979L268.054 837.354L112.795 877.827L153.932 726.549L144.643 711.289C91.653 625.952 71.8313 524.132 88.9387 425.149C106.046 326.166 158.893 236.905 237.451 174.304C316.01 111.703 414.814 80.1159 515.119 85.5366C615.423 90.9573 710.249 133.008 781.603 203.711C819.856 241.656 850.175 286.835 870.794 336.615C891.412 386.395 901.917 439.781 901.696 493.661C901.521 602.357 858.264 706.551 781.404 783.411C704.544 860.271 600.35 903.529 491.653 903.704Z" fill="black"/>
</svg>
